<?xml version="1.0" encoding="UTF-8" standalone="no"?>
<svg
   viewBox="0 0 729.06 450.59"
   version="1.1"
   id="svg16"
   sodipodi:docname="fyc_logo.svg"
   width="729.06"
   height="450.59"
   inkscape:version="1.2 (dc2aedaf03, 2022-05-15)"
   xmlns:inkscape="http://www.inkscape.org/namespaces/inkscape"
   xmlns:sodipodi="http://sodipodi.sourceforge.net/DTD/sodipodi-0.dtd"
   xmlns="http://www.w3.org/2000/svg"
   xmlns:svg="http://www.w3.org/2000/svg">
  <sodipodi:namedview
     id="namedview18"
     pagecolor="#ffffff"
     bordercolor="#666666"
     borderopacity="1.0"
     inkscape:showpageshadow="2"
     inkscape:pageopacity="0.0"
     inkscape:pagecheckerboard="0"
     inkscape:deskcolor="#d1d1d1"
     showgrid="false"
     inkscape:zoom="0.59184838"
     inkscape:cx="289.77016"
     inkscape:cy="324.40741"
     inkscape:window-width="1920"
     inkscape:window-height="1017"
     inkscape:window-x="-8"
     inkscape:window-y="-8"
     inkscape:window-maximized="1"
     inkscape:current-layer="svg16" />
  <defs
     id="defs4">
    <style
       id="style2">.cls-1{fill:#dc1f26;stroke:#dc1f26;stroke-miterlimit:10;stroke-width:8px;}.cls-2{fill:#fff;}</style>
  </defs>
  <g
     id="Layer_3"
     data-name="Layer 3"
     transform="translate(-133.94,-271.59)">
    <rect
       class="cls-1"
       x="137.94"
       y="275.59"
       width="721.06"
       height="442.59"
       rx="174"
       id="rect6" />
  </g>
  <g
     id="Layer_1"
     data-name="Layer 1"
     transform="translate(-133.94,-271.59)">
    <path
       class="cls-2"
       d="m 353.53,386.77 c -0.18,2.13 -1.57,3.22 -4.15,3.2 -14.6,-0.09 -29.41,-1.86 -43.91,-3.78 -14.5,-1.92 -29.43,-3.71 -44,-2.65 -12.14,0.88 -19.1,2.68 -21.25,4.25 -7.58,6.67 -9.3,18.91 -9.8,28.28 -0.5,9.37 -1.42,25.22 8.27,30.93 2.49,0.82 6.32,1.11 11.52,0.86 13.51,-0.64 27.09,-2 40.6,-3.06 13.51,-1.06 32.87,-5.36 40.64,-2.25 8.53,3.41 6.46,39.82 6.49,53 0,17.34 1.61,36.84 -2.16,53.55 -0.8,3.54 -2.69,5.42 -5.32,5.42 1.71,0 -2.44,-0.72 -12.39,-2.11 -21.06,-2.94 -42.62,-2.83 -63.83,-3.6 -9,-0.33 -13.87,-0.53 -15,-0.4 -6.35,1.22 -9.39,5.16 -9.43,11.88 a 266.71,266.71 0 0 0 15.44,91.37 253.92,253.92 0 0 0 16.27,36.21 c 2,3.89 -0.32,5.13 -6.57,3.19 1.69,0.54 -3.54,-0.84 -13.75,-6.14 A 162.63,162.63 0 0 1 206.28,660.78 76.62,76.62 0 0 1 198.14,652.22 148.62,148.62 0 0 1 167.46,582 c -4,-25.79 -1.21,-54.36 -1.21,-81.54 0,-27 -3,-55.35 0.31,-81 A 141.29,141.29 0 0 1 195,350.63 c 0.64,-0.82 1,-1.23 1.62,-2 A 62.63,62.63 0 0 1 204,341 a 146.05,146.05 0 0 1 29.88,-20 171,171 0 0 1 35,-12.69 308.48,308.48 0 0 1 43,-7.75 c 14.11,-1.46 28.64,-2.67 42.91,-2.74 5.76,0 8.31,3.43 7,9.5 -2.18,10.18 -5.1,21.55 -6.53,32.26 a 206.37,206.37 0 0 0 -1.12,23 c -0.08,10.19 -0.14,18.42 -0.61,24.19 z"
       id="path9" />
    <path
       class="cls-2"
       d="m 600,397.61 a 66.45,66.45 0 0 1 -2.53,22.47 c -17.77,56.83 -43.26,111.41 -70.22,164.37 q -6.36,12.69 -6.44,22.63 c -0.12,14.89 0.22,29.87 0.45,44.74 0.2,13.31 0.38,26.71 -0.12,40 -0.11,2.83 -0.65,4.54 -1.61,5.15 a 23.64,23.64 0 0 1 -4.77,1.16 c -10,1.75 -21.05,1.38 -31.48,1.38 -10.68,0 -21.94,0.4 -32.45,-1.38 -3.3,-0.56 -5.25,-2.84 -5.66,-6.79 -1.42,-13.6 -1.66,-27.41 -1.78,-41 -0.13,-15.21 0.1,-30.64 -0.26,-45.91 q -0.23,-9.39 -5.09,-20.58 c -24.38,-51.86 -46.36,-105 -68.16,-158 -2.94,-7.95 -4.24,-14.38 -4,-19.35 0.68,-17.22 1.55,-34.65 3.23,-51.62 a 354.61,354.61 0 0 1 7.28,-46.12 c 1.23,-5.22 3.09,-7.72 5.42,-7.72 10.7,0 21.45,0.57 32.16,1.15 10.71,0.58 21.67,1.14 32.49,1.16 2.69,0 3.92,1.16 3.69,3.52 -1.3,12.88 -2.69,25.8 -3.94,38.69 -1.38,14.26 -3.29,29.55 -2.85,42.94 0.47,14.64 10.17,31.34 16.66,45 6.95,14.59 14.44,29.44 22.64,43.63 7.71,-14.13 14.68,-28.78 21.34,-43.33 6.13,-13.31 16,-29.46 16.72,-43.53 0.64,-13.29 -1.08,-28.39 -2.08,-42.54 -0.9,-12.81 -1.91,-25.66 -2.32,-38.47 -0.1,-3.33 0.38,-5.19 1.41,-5.65 h 4.4 c 10.55,-0.05 21.09,-0.63 31.61,-1.28 10.52,-0.65 21.09,-1.25 31.62,-1.27 2.32,0 4.13,3.24 5.28,10.11 2.26,13.58 4.15,27.27 5.73,40.87 1.8,15.06 2.96,30.36 3.63,45.57 z"
       id="path11" />
    <path
       class="cls-2"
       d="m 828.69,611.94 c -0.94,2.3 -3.17,5.8 -6.8,10.58 -25,31.33 -59.09,69.35 -99.18,79.61 C 687.12,711.24 662,681.61 648.21,653.7 625.48,607.69 618,551.47 618,500.59 c 0,-50.88 8.26,-105.81 29.86,-152.19 12.79,-27.46 36.18,-59.84 71.71,-51.55 39.78,9.29 75.12,45.15 100.25,76.15 a 50.52,50.52 0 0 1 6.62,9.78 c 1.21,2.68 3.23,10.3 0.31,27.62 C 825,420.72 822,433 816.39,442.11 a 3.07,3.07 0 0 1 -3.2,1.56 c -0.54,-0.08 -3,-4.31 -8.29,-12.27 -5.63,-8.5 -11.83,-17 -19.62,-24 -9.38,-7.17 -19,-14.24 -31.11,-15.52 -21.37,-2.25 -34.79,14.21 -43.41,30.62 -11.88,22.61 -16.14,50 -15.83,76 0.32,26.45 3.73,53.6 15.87,76.85 8.64,16.56 22,33.51 43.52,31.31 12,-1.23 21.72,-7.95 31.2,-15 a 108.45,108.45 0 0 0 19.19,-22.55 c 5,-7.83 7.62,-11.66 8.16,-11.75 1.07,-0.18 2.15,0.58 3.2,2.36 a 138.59,138.59 0 0 1 10.5,28.71 c 3.87,15.57 2.77,21.94 2.12,23.51 z"
       id="path13" />
  </g>
</svg>
